<svg xmlns="http://www.w3.org/2000/svg" xmlns:xlink="http://www.w3.org/1999/xlink" width="479" height="261"><g><text transform="translate(239.5, 20)" style="font-family: sans-serif; fill: rgb(59, 59, 59); font-size: 0.85rem; font-weight: bold; text-anchor: middle;"><tspan x="0" dy="0em">Carbon dioxide emissions per capita in: Bahamas</tspan></text></g><g transform="translate(10, 25)"><svg><svg xmlns="http://www.w3.org/2000/svg" xmlns:xlink="http://www.w3.org/1999/xlink" width="459" height="194" class="dc-async-element"><g class="x axis" transform="translate(0, 164)" fill="none" font-size="10" font-family="sans-serif" text-anchor="middle"><path class="domain" stroke="#999" d="M0,0.5H449.5" transform="translate(0, 0)"/><g class="tick" opacity="1" transform="translate(100.83305527532448,0)"><line stroke="#999" y2="6" stroke-width="0.5"/><text fill="currentColor" y="9" dy="0.71em">1995</text></g><g class="tick" opacity="1" transform="translate(173.46171314358588,0)"><line stroke="#999" y2="6" stroke-width="0.5"/><text fill="currentColor" y="9" dy="0.71em">2000</text></g><g class="tick" opacity="1" transform="translate(246.1301457423338,0)"><line stroke="#999" y2="6" stroke-width="0.5"/><text fill="currentColor" y="9" dy="0.71em">2005</text></g><g class="tick" opacity="1" transform="translate(318.7588036105952,0)"><line stroke="#999" y2="6" stroke-width="0.5"/><text fill="currentColor" y="9" dy="0.71em">2010</text></g><g class="tick" opacity="1" transform="translate(391.3874614788566,0)"><line stroke="#999" y2="6" stroke-width="0.5"/><text fill="currentColor" y="9" dy="0.71em">2015</text></g></g><g class="y axis" transform="translate(449, 0)" fill="none" font-size="10" font-family="sans-serif" text-anchor="end"><g class="tick" opacity="1" transform="translate(0,164.5)"><line stroke="currentColor" x2="-449" class="grid-line" style="stroke: rgb(153, 153, 153); stroke-width: 0.5; stroke-opacity: 0.5; stroke-dasharray: 2, 2;"/><text fill="currentColor" x="-449" dy="-4" style="fill: rgb(43, 41, 41); shape-rendering: crispedges; font-family: Roboto;" transform="translate(17.7060546875, 0)">0 t</text></g><g class="tick" opacity="1" transform="translate(0,128.5)"><line stroke="currentColor" x2="-449" class="grid-line" style="stroke: rgb(153, 153, 153); stroke-width: 0.5; stroke-opacity: 0.5; stroke-dasharray: 2, 2;"/><text fill="currentColor" x="-449" dy="-4" style="fill: rgb(43, 41, 41); shape-rendering: crispedges; font-family: Roboto;" transform="translate(17.7060546875, 0)">5 t</text></g><g class="tick" opacity="1" transform="translate(0,92.5)"><line stroke="currentColor" x2="-449" class="grid-line" style="stroke: rgb(153, 153, 153); stroke-width: 0.5; stroke-opacity: 0.5; stroke-dasharray: 2, 2;"/><text fill="currentColor" x="-449" dy="-4" style="fill: rgb(43, 41, 41); shape-rendering: crispedges; font-family: Roboto;" transform="translate(17.7060546875, 0)">10 t</text></g><g class="tick" opacity="1" transform="translate(0,56.5)"><line stroke="currentColor" x2="-449" class="grid-line" style="stroke: rgb(153, 153, 153); stroke-width: 0.5; stroke-opacity: 0.5; stroke-dasharray: 2, 2;"/><text fill="currentColor" x="-449" dy="-4" style="fill: rgb(43, 41, 41); shape-rendering: crispedges; font-family: Roboto;" transform="translate(17.7060546875, 0)">15 t</text></g><g class="tick" opacity="1" transform="translate(0,20.5)"><line stroke="currentColor" x2="-449" class="grid-line" style="stroke: rgb(153, 153, 153); stroke-width: 0.5; stroke-opacity: 0.5; stroke-dasharray: 2, 2;"/><text fill="currentColor" x="-449" dy="-4" style="fill: rgb(43, 41, 41); shape-rendering: crispedges; font-family: Roboto;" transform="translate(17.7060546875, 0)">20 t</text></g></g><g class="highlight"/><g class="chart-area"><path class="line" d="M449,113.45582604671523L434.482223372445,113.83901793783315L419.96444674489004,124.84406658985408L405.40689538684853,126.90684353258321L390.8891187592936,123.48020923343394L376.3713421317386,117.37302897309421L361.85356550418356,111.53792405545782L347.29601414614217,97.09968916828143L332.77823751858716,115.04114428006835L318.26046089103215,123.8791244704035L303.74268426347714,43.30130238165151L289.1851329054357,120.33897836705911L274.66735627788074,121.32331511514825L260.14957965032573,121.12633182475524L245.63180302277073,120.32022850602642L231.07425166472927,116.78193121901313L216.55647503717427,113.3751637449419L202.0386984096193,112.26378079578713L187.5209217820643,115.50867953377463L172.96337042402283,114.59905111779801L158.44559379646785,111.84433231753006L143.92781716891287,110.12521322265837L129.41004054135786,120.59168652130599L114.85248918331642,115.12368946621064L100.33471255576141,111.12138712886492L85.81693592820643,113.30560515923632L71.29915930065144,111.77973653891534L56.74160794260999,98.37669564107206L42.223831315054994,110.79378971085787L27.7060546875,111.86444460043079" style="stroke: rgb(252, 176, 102); fill: none; stroke-width: 2.5px;"/></g></svg></svg></g><g transform="translate(10, 249)"><text style="fill: rgb(59, 59, 59); font-family: sans-serif; font-size: 0.7rem;"><tspan x="0" dy="0em">Dati di datacatalog.worldbank.org tramite Data Commons</tspan></text></g></svg>